<svg xmlns="http://www.w3.org/2000/svg" viewBox="0 0 320 320" role="img" aria-labelledby="title desc">
  <title id="title">Stylised hemocytometer detection output</title>
  <desc id="desc">Simplified depiction of model predictions overlaying bounding boxes and labels.</desc>
  <rect width="320" height="320" fill="#f8f9fb"/>
  <g stroke="#ccd2dd" stroke-width="1">
    <line x1="0" y1="40" x2="320" y2="40"/>
    <line x1="0" y1="80" x2="320" y2="80"/>
    <line x1="0" y1="120" x2="320" y2="120"/>
    <line x1="0" y1="160" x2="320" y2="160"/>
    <line x1="0" y1="200" x2="320" y2="200"/>
    <line x1="0" y1="240" x2="320" y2="240"/>
    <line x1="0" y1="280" x2="320" y2="280"/>
    <line x1="40" y1="0" x2="40" y2="320"/>
    <line x1="80" y1="0" x2="80" y2="320"/>
    <line x1="120" y1="0" x2="120" y2="320"/>
    <line x1="160" y1="0" x2="160" y2="320"/>
    <line x1="200" y1="0" x2="200" y2="320"/>
    <line x1="240" y1="0" x2="240" y2="320"/>
    <line x1="280" y1="0" x2="280" y2="320"/>
  </g>
  <g fill="#5470c6" opacity="0.4">
    <circle cx="68" cy="52" r="15"/>
    <circle cx="138" cy="98" r="12"/>
    <circle cx="216" cy="70" r="13"/>
    <circle cx="272" cy="130" r="10"/>
    <circle cx="72" cy="162" r="11"/>
    <circle cx="120" cy="210" r="16"/>
    <circle cx="210" cy="200" r="14"/>
    <circle cx="260" cy="246" r="12"/>
    <circle cx="160" cy="270" r="10"/>
    <circle cx="80" cy="252" r="9"/>
  </g>
  <g stroke="#ff6b6b" stroke-width="2" fill="none">
    <rect x="48" y="32" width="40" height="40" rx="4"/>
    <rect x="120" y="78" width="36" height="36" rx="4"/>
    <rect x="196" y="50" width="40" height="40" rx="4"/>
    <rect x="252" y="110" width="28" height="28" rx="4"/>
    <rect x="52" y="142" width="34" height="34" rx="4"/>
    <rect x="102" y="190" width="40" height="40" rx="4"/>
    <rect x="192" y="180" width="40" height="40" rx="4"/>
    <rect x="240" y="226" width="36" height="36" rx="4"/>
    <rect x="144" y="250" width="32" height="32" rx="4"/>
    <rect x="64" y="234" width="28" height="28" rx="4"/>
  </g>
  <g font-family="'Fira Sans', Arial, sans-serif" font-size="11" fill="#1f2933" stroke="#fefefe" stroke-width="0.8" paint-order="stroke">
    <text x="50" y="28">cell: 0.94</text>
    <text x="122" y="74">cell: 0.92</text>
    <text x="198" y="46">cell: 0.97</text>
    <text x="254" y="106">cell: 0.90</text>
    <text x="54" y="138">cell: 0.93</text>
    <text x="104" y="186">cell: 0.95</text>
    <text x="194" y="176">cell: 0.96</text>
    <text x="242" y="222">cell: 0.91</text>
    <text x="146" y="246">cell: 0.89</text>
    <text x="66" y="230">cell: 0.88</text>
  </g>
  <rect x="16" y="16" width="96" height="28" fill="#1f2933" rx="6"/>
  <text x="32" y="34" font-family="'Fira Sans', Arial, sans-serif" font-size="14" fill="#fefefe">Count: 10</text>
</svg>
