<svg xmlns="http://www.w3.org/2000/svg" viewBox="0 0 320 320" role="img" aria-labelledby="title desc">
  <title id="title">Stylised hemocytometer input</title>
  <desc id="desc">Simplified depiction of a hemocytometer field with several circular cells.</desc>
  <rect width="320" height="320" fill="#f8f9fb"/>
  <g stroke="#ccd2dd" stroke-width="1">
    <line x1="0" y1="40" x2="320" y2="40"/>
    <line x1="0" y1="80" x2="320" y2="80"/>
    <line x1="0" y1="120" x2="320" y2="120"/>
    <line x1="0" y1="160" x2="320" y2="160"/>
    <line x1="0" y1="200" x2="320" y2="200"/>
    <line x1="0" y1="240" x2="320" y2="240"/>
    <line x1="0" y1="280" x2="320" y2="280"/>
    <line x1="40" y1="0" x2="40" y2="320"/>
    <line x1="80" y1="0" x2="80" y2="320"/>
    <line x1="120" y1="0" x2="120" y2="320"/>
    <line x1="160" y1="0" x2="160" y2="320"/>
    <line x1="200" y1="0" x2="200" y2="320"/>
    <line x1="240" y1="0" x2="240" y2="320"/>
    <line x1="280" y1="0" x2="280" y2="320"/>
  </g>
  <g fill="#5470c6" opacity="0.88">
    <circle cx="68" cy="52" r="15"/>
    <circle cx="138" cy="98" r="12"/>
    <circle cx="216" cy="70" r="13"/>
    <circle cx="272" cy="130" r="10"/>
    <circle cx="72" cy="162" r="11"/>
    <circle cx="120" cy="210" r="16"/>
    <circle cx="210" cy="200" r="14"/>
    <circle cx="260" cy="246" r="12"/>
    <circle cx="160" cy="270" r="10"/>
    <circle cx="80" cy="252" r="9"/>
  </g>
</svg>
